<svg xmlns="http://www.w3.org/2000/svg" width="72" height="72" viewBox="0 0 72 72">
    <g fill="none" fill-rule="evenodd">
        <g>
            <g>
                <g>
                    <path stroke="#000" stroke-linecap="round" stroke-linejoin="round" stroke-width="3" d="M38 10.058c0 5.555-8.507 10.058-19 10.058-10.494 0-19-4.503-19-10.058S8.506 0 19 0c10.493 0 19 4.503 19 10.058zM38 21.91c0 5.555-8.507 10.058-19 10.058-10.494 0-19-4.503-19-10.058M.001 33.767c0 5.55 8.51 10.05 19 10.05 3.47 0 6.73-.49 9.53-1.35M.001 46.897c0 5.56 8.51 10.06 19 10.06 3.65 0 7.06-.54 9.95-1.48" transform="translate(-159 -302) translate(159 302) translate(2 2)"/>
                    <path stroke="#000" stroke-linecap="round" stroke-linejoin="round" stroke-width="3" d="M.001 10.057v48.81c0 5.55 8.51 10.06 19 10.06 6.8 0 12.77-1.89 16.12-4.74M38.001 10.057L38.001 21.907 38.001 30.497" transform="translate(-159 -302) translate(159 302) translate(2 2)"/>
                    <path stroke="#EB2127" stroke-linecap="round" stroke-linejoin="round" stroke-width="3" d="M68.86 48.336c0 11.37-9.218 20.588-20.589 20.588-11.37 0-20.588-9.217-20.588-20.588s9.218-20.59 20.588-20.59c11.371 0 20.59 9.219 20.59 20.59z" transform="translate(-159 -302) translate(159 302) translate(2 2)"/>
                    <path fill="#EB2127" d="M44.65 41.338c.915 0 1.611.277 2.09.83.475.553.714 1.301.714 2.242v.973h.878v1.603h-.878v3.797c0 .496.153.875.458 1.136.305.26.693.391 1.164.391.865 0 1.587-.34 2.166-1.02.58-.68.868-1.486.868-2.415 0-1.297-.66-1.946-1.984-1.946-.28 0-.54.026-.783.076v-1.622c.318-.05.661-.076 1.031-.076 1.157 0 2.042.322 2.652.964.61.642.916 1.51.916 2.604 0 1.361-.452 2.541-1.355 3.54-.904 1-2.074 1.498-3.51 1.498-.968 0-1.782-.28-2.444-.84-.66-.56-.992-1.323-.992-2.29v-3.797h-1.64v-1.603h1.64v-.763c0-.534-.11-.935-.334-1.202-.222-.268-.582-.4-1.078-.4-.305 0-.52.012-.648.037v-1.603c.381-.076.737-.114 1.068-.114" transform="translate(-159 -302) translate(159 302) translate(2 2)"/>
                    <path stroke="#EB2127" stroke-linecap="round" stroke-linejoin="round" stroke-width=".5" d="M44.65 41.338c.915 0 1.611.277 2.09.83.475.553.714 1.301.714 2.242v.973h.878v1.603h-.878v3.797c0 .496.153.875.458 1.136.305.26.693.391 1.164.391.865 0 1.587-.34 2.166-1.02.58-.68.868-1.486.868-2.415 0-1.297-.66-1.946-1.984-1.946-.28 0-.54.026-.783.076v-1.622c.318-.05.661-.076 1.031-.076 1.157 0 2.042.322 2.652.964.61.642.916 1.51.916 2.604 0 1.361-.452 2.541-1.355 3.54-.904 1-2.074 1.498-3.51 1.498-.968 0-1.782-.28-2.444-.84-.66-.56-.992-1.323-.992-2.29v-3.797h-1.64v-1.603h1.64v-.763c0-.534-.11-.935-.334-1.202-.222-.268-.582-.4-1.078-.4-.305 0-.52.012-.648.037v-1.603c.381-.076.737-.114 1.068-.114z" transform="translate(-159 -302) translate(159 302) translate(2 2)"/>
                </g>
            </g>
        </g>
    </g>
</svg>
